<svg width="60" height="60" viewBox="0 0 60 60" fill="none" xmlns="http://www.w3.org/2000/svg">
<rect width="60" height="60" rx="30" fill="#E9F2F8"/>
<path d="M42.5625 14.6748V20.3973C42.5625 21.7781 41.4431 22.8974 40.0624 22.8974C38.6816 22.8974 37.5626 21.7781 37.5626 20.3973V14.6748C35.358 15.6404 33.8126 17.8364 33.8126 20.3973C33.8126 22.4347 34.8037 24.2279 36.3124 25.3694V40.9248C36.3124 42.9952 37.992 44.6748 40.0624 44.6748C42.1328 44.6748 43.8124 42.9952 43.8124 40.9248V25.3694C45.3225 24.2279 46.3125 22.4347 46.3125 20.3973C46.3125 17.8353 44.7683 15.6404 42.5625 14.6748ZM33.8126 32.1749V27.1747H20.0625C17.9921 27.1747 16.3125 28.8532 16.3125 30.9236L16.3136 30.9247H16.3125V39.6749H18.8126V43.4249C18.8126 44.1134 19.3751 44.6748 20.0625 44.6748H22.5626C23.2496 44.6748 23.8125 44.1134 23.8125 43.4249V39.6749H33.8126V34.6747H25.0624V32.1749H33.8126ZM21.3124 34.9874C20.4506 34.9874 19.7501 34.288 19.7501 33.4248C19.7501 32.5604 20.4506 31.8622 21.3124 31.8622C22.1745 31.8622 22.875 32.5604 22.875 33.4248C22.875 34.288 22.1745 34.9874 21.3124 34.9874ZM31.3125 20.3973C31.3125 19.2693 31.5495 18.1855 31.9523 17.1746H24.2055C23.1705 17.1746 22.233 17.5945 21.5543 18.2733C21.2067 18.6215 20.931 19.0346 20.7428 19.4891L18.5944 24.6746H32.4457C31.7142 23.3868 31.3125 21.927 31.3125 20.3973Z" fill="#3DAFFF"/>
</svg>
