<svg width="60" height="60" viewBox="0 0 60 60" fill="none" xmlns="http://www.w3.org/2000/svg">
<circle cx="30" cy="30" r="30" fill="#E5F5F2"/>
<path d="M31.8668 16.0051C31.3836 15.9545 30.945 16.2875 30.8858 16.7681C30.8257 17.2504 31.1673 17.6891 31.6488 17.7491C32.8418 17.8976 34.0074 18.32 35.1138 18.7869C35.566 18.9748 36.078 18.7629 36.2656 18.3183C36.4536 17.8703 36.2442 17.3553 35.797 17.1665C34.5413 16.6377 33.2186 16.1733 31.8668 16.0051ZM41.7356 23.1429C42.1227 22.8493 42.1983 22.2974 41.9047 21.9112C41.0815 20.827 40.1144 19.8599 39.0302 19.0367C38.6432 18.7449 38.093 18.8178 37.7985 19.2058C37.505 19.592 37.5805 20.1439 37.9676 20.4375C38.9246 21.1635 39.7779 22.0168 40.5039 22.9737C40.7984 23.3616 41.3495 23.435 41.7356 23.1429ZM42.6231 24.6758C42.1759 24.8646 41.9665 25.3796 42.1545 25.8276C42.6214 26.934 43.1005 28.1581 43.249 29.3512C43.3066 29.8174 43.7282 30.1726 44.2301 30.1142C44.7116 30.0541 45.0532 29.6155 44.9931 29.1332C44.8249 27.7814 44.3036 26.4001 43.7749 25.1444C43.5861 24.6972 43.0703 24.4904 42.6231 24.6758ZM24.203 17.1665C23.7558 17.3553 23.5464 17.8703 23.7344 18.3183C23.9223 18.7639 24.4351 18.9744 24.8862 18.7869C25.9926 18.32 27.1581 17.8976 28.3512 17.7491C28.8327 17.6891 29.1743 17.2504 29.1142 16.7681C29.0542 16.2875 28.6138 15.9544 28.1332 16.0051C26.7814 16.1733 25.4587 16.6377 24.203 17.1665ZM30 46C37.5222 46 44.0636 40.3203 44.9931 32.8668C45.0531 32.3853 44.7115 31.9458 44.2301 31.8858C43.746 31.8317 43.3083 32.1673 43.249 32.6488C42.4285 39.2252 36.6373 44.2422 30 44.2422C22.7301 44.2422 16.7578 38.2699 16.7578 31C16.7578 27.7959 18.0291 24.6778 20.0976 22.2963V22.5873C20.0976 23.0731 20.4908 23.4662 20.9766 23.4662C21.4624 23.4662 21.8555 23.0731 21.8555 22.5873V20.1016C21.8555 19.6158 21.4624 19.2227 20.9766 19.2227H18.4901C18.0043 19.2227 17.6112 19.6158 17.6112 20.1016C17.6112 20.5874 18.0043 20.9799 18.4901 20.9799H18.9134C16.4788 23.702 15 27.2942 15 31C15 39.2389 21.7611 46 30 46Z" fill="#019F78"/>
<path d="M19.3945 31C19.3945 36.8159 24.1841 41.6055 30 41.6055C35.8159 41.6055 40.6055 36.8159 40.6055 31C40.6055 25.1841 35.8159 20.3945 30 20.3945C24.1841 20.3945 19.3945 25.1841 19.3945 31ZM30.8789 27.4844C30.8789 26.9986 31.272 26.6055 31.7578 26.6055C32.2436 26.6055 32.6367 26.9986 32.6367 27.4844V30.1211H34.3945V27.4844C34.3945 26.9986 34.7876 26.6055 35.2734 26.6055C35.7592 26.6055 36.1523 26.9986 36.1523 27.4844V34.5156C36.1523 35.0014 35.7592 35.3945 35.2734 35.3945C34.7876 35.3945 34.3945 35.0014 34.3945 34.5156V31.8789H31.7578C31.272 31.8789 30.8789 31.4858 30.8789 31V27.4844ZM26.4844 28.3633C25.9995 28.3633 25.6055 28.7573 25.6055 29.2422C25.6055 29.728 25.2124 30.1211 24.7266 30.1211C24.2408 30.1211 23.8477 29.728 23.8477 29.2422C23.8477 27.7882 25.0304 26.6055 26.4844 26.6055C27.9383 26.6055 29.1211 27.7882 29.1211 29.2422C29.1211 31 27.9512 31.8772 27.0114 32.5819C26.4907 32.9726 26.1199 33.2852 25.8845 33.6367H28.2422C28.728 33.6367 29.1211 34.0298 29.1211 34.5156C29.1211 35.0014 28.728 35.3945 28.2422 35.3945H24.7266C24.2408 35.3945 23.8477 35.0014 23.8477 34.5156C23.8477 32.7578 25.0175 31.8806 25.9574 31.176C26.8552 30.5022 27.3633 30.0799 27.3633 29.2422C27.3633 28.7572 26.9694 28.3633 26.4844 28.3633Z" fill="#019F78"/>
</svg>
