<svg width="60" height="60" viewBox="0 0 60 60" fill="none" xmlns="http://www.w3.org/2000/svg">
<circle cx="30" cy="30" r="30" fill="#FFF3EC"/>
<path d="M29.9997 39.2158C29.2409 39.2158 28.6235 39.8332 28.6235 40.5919C28.6235 41.3508 29.2409 41.9681 29.9997 41.9681C30.7586 41.9681 31.3759 41.3508 31.3759 40.5919C31.3759 39.8332 30.7586 39.2158 29.9997 39.2158Z" fill="#FF7B43"/>
<path d="M29.9999 33.2549C28.032 33.2549 26.2431 34.034 24.9242 35.2996L26.6945 35.8061L25.4764 39.5451H26.6923C27.1372 38.1421 28.4516 37.1224 29.9999 37.1224C31.5482 37.1224 32.8626 38.1421 33.3075 39.5451H34.5233L33.3053 35.8061L35.0762 35.2994C33.7573 34.0338 31.9679 33.2549 29.9999 33.2549ZM26.6923 41.6383H24.7945L24.2509 43.3072L23.113 43.1207C24.0294 45.6084 26.2568 47.4672 28.9533 47.8541V43.8994C27.8807 43.5592 27.0324 42.7109 26.6923 41.6383Z" fill="#FF7B43"/>
<path d="M42.6243 34.7566L39.6813 27.4775C39.254 26.4207 38.2413 25.7378 37.1013 25.7378H22.8984C21.7584 25.7378 20.7457 26.4207 20.3184 27.4775L17.3754 34.7566C17.1895 35.2144 17.1534 35.7194 17.2723 36.199C17.3911 36.6786 17.6588 37.1082 18.037 37.4263L22.0705 40.8288L22.817 40.9512L24.032 37.2215L22.9462 36.9109L21.6453 36.947L21.5873 34.8547L22.5416 34.8281C24.2679 32.5993 26.9689 31.1617 29.9998 31.1617C33.0305 31.1617 35.7306 32.5997 37.4569 34.8281L38.4123 34.8546L38.3543 36.947L37.0534 36.9109L35.9677 37.2214L37.1827 40.9511L37.9291 40.8287L41.9626 37.4262C42.3408 37.1082 42.6086 36.6786 42.7275 36.199C42.8463 35.7194 42.8102 35.2144 42.6243 34.7566ZM35.2052 41.6383H33.3075C32.9673 42.7109 32.119 43.5592 31.0464 43.8993V47.8539C33.7428 47.4671 35.9701 45.6084 36.8864 43.1207L35.7488 43.3072L35.2052 41.6383Z" fill="#FF7B43"/>
<path d="M29.9995 24.6914C33.4639 24.6914 36.2724 21.8829 36.2724 18.4184C36.2724 14.954 33.4639 12.1455 29.9995 12.1455C26.535 12.1455 23.7266 14.954 23.7266 18.4184C23.7266 21.8829 26.535 24.6914 29.9995 24.6914Z" fill="#FF7B43"/>
</svg>
