<svg width="76" height="76" viewBox="0 0 76 76" fill="none" xmlns="http://www.w3.org/2000/svg">
<circle cx="38" cy="38" r="38" fill="#FEF8E6"/>
<path d="M32.3736 19.9049C31.6877 19.0176 30.8323 18.2916 29.8627 17.774C28.8931 17.2563 27.831 16.9584 26.745 16.8997C25.6591 16.841 24.5735 17.0226 23.5585 17.4329C22.5436 17.8433 21.6218 18.4731 20.8529 19.2817C20.084 20.0903 19.4851 21.0596 19.095 22.127C18.7048 23.1944 18.532 24.336 18.5879 25.478C18.6438 26.62 18.927 27.737 19.4192 28.7566C19.9115 29.7763 20.6018 30.6759 21.4455 31.3972C20.8311 33.3029 20.5188 35.3017 20.5211 37.3139C20.5211 41.8378 22.0748 45.9817 24.6538 49.1841L20.9483 53.0809C20.8052 53.2212 20.6905 53.3903 20.6108 53.5782C20.5312 53.7661 20.4884 53.9689 20.485 54.1746C20.4815 54.3802 20.5175 54.5845 20.5908 54.7753C20.664 54.966 20.7731 55.1393 20.9114 55.2847C21.0497 55.4302 21.2144 55.5448 21.3958 55.6219C21.5772 55.6989 21.7714 55.7368 21.967 55.7331C22.1626 55.7295 22.3555 55.6845 22.5341 55.6008C22.7128 55.517 22.8736 55.3963 23.007 55.2458L26.7125 51.349C29.8649 54.1611 33.8661 55.7017 37.9999 55.6952C42.3016 55.6952 46.2421 54.0613 49.2873 51.349L52.9928 55.2458C53.1261 55.3963 53.2869 55.517 53.4656 55.6008C53.6443 55.6845 53.8371 55.7295 54.0327 55.7331C54.2283 55.7368 54.4225 55.6989 54.6039 55.6219C54.7853 55.5448 54.95 55.4302 55.0883 55.2847C55.2267 55.1393 55.3357 54.966 55.409 54.7753C55.4822 54.5845 55.5182 54.3802 55.5147 54.1746C55.5113 53.9689 55.4685 53.7661 55.3889 53.5782C55.3093 53.3903 55.1945 53.2212 55.0514 53.0809L51.3459 49.1841C54.0199 45.8689 55.4849 41.6612 55.4786 37.3139C55.4809 35.3017 55.1686 33.3028 54.5542 31.3972C55.3979 30.6759 56.0882 29.7763 56.5805 28.7566C57.0728 27.737 57.356 26.62 57.4118 25.478C57.4677 24.336 57.2949 23.1944 56.9048 22.127C56.5146 21.0596 55.9157 20.0903 55.1468 19.2817C54.3779 18.4731 53.4561 17.8433 52.4412 17.4329C51.4262 17.0226 50.3406 16.841 49.2547 16.8997C48.1687 16.9584 47.1066 17.2563 46.137 17.774C45.1675 18.2916 44.312 19.0176 43.6261 19.9049C41.814 19.2588 39.9132 18.9304 37.9999 18.9327C36.0865 18.9303 34.1857 19.2588 32.3736 19.9049ZM26.3473 19.9539C27.5252 19.952 28.6633 20.4022 29.5479 21.2202C26.6666 22.8987 24.2923 25.3955 22.6962 28.4256C22.0811 27.6877 21.6812 26.7789 21.5444 25.8082C21.4076 24.8375 21.5398 23.8458 21.925 22.952C22.3102 22.0582 22.9322 21.3001 23.7165 20.7683C24.5008 20.2366 25.4142 19.9539 26.3473 19.9539ZM46.4518 21.2202C47.3786 20.3652 48.5799 19.9129 49.8121 19.9553C51.0443 19.9976 52.215 20.5313 53.0868 21.448C53.9586 22.3648 54.466 23.596 54.5063 24.8918C54.5465 26.1876 54.1165 27.451 53.3035 28.4256C51.7074 25.3955 49.3331 22.8987 46.4518 21.2202ZM36.5433 27.1021C36.9296 27.1021 37.3001 27.2635 37.5732 27.5508C37.8464 27.838 37.9999 28.2277 37.9999 28.6339V37.3139H43.3406C43.7269 37.3139 44.0974 37.4753 44.3705 37.7626C44.6437 38.0498 44.7972 38.4394 44.7972 38.8457C44.7972 39.2519 44.6437 39.6416 44.3705 39.9288C44.0974 40.2161 43.7269 40.3775 43.3406 40.3775H36.5433C36.157 40.3775 35.7865 40.2161 35.5133 39.9288C35.2402 39.6416 35.0867 39.2519 35.0867 38.8457V28.6339C35.0867 28.2277 35.2402 27.838 35.5133 27.5508C35.7865 27.2635 36.157 27.1021 36.5433 27.1021Z" fill="#FEBB12"/>
</svg>
