<svg width="76" height="76" viewBox="0 0 76 76" fill="none" xmlns="http://www.w3.org/2000/svg">
<circle cx="38" cy="38" r="38" fill="#FFF3EC"/>
<g clip-path="url(#clip0)">
<path d="M20.7036 17.7333C20.4123 17.7333 20.2666 17.9404 20.2666 18.1994V58.6494C20.2666 58.9084 20.4608 59.1155 20.7036 59.1155H53.7699C54.0127 59.1155 54.2069 58.9084 54.2069 58.6494V18.1994C54.2069 17.8887 54.0127 17.7333 53.7699 17.7333H20.7036ZM25.1222 22.9125H49.3999V33.271H25.1222V22.9125ZM25.1222 38.4503H29.9777V43.6296H25.1222V38.4503ZM34.8333 38.4503H39.6888V43.6296H34.8333V38.4503ZM44.5444 38.4503H49.3999V53.9881H44.5444V38.4503ZM25.1222 48.8088H29.9777V53.9881H25.1222V48.8088ZM34.8333 48.8088H39.6888V53.9881H34.8333V48.8088Z" fill="#FF7B43"/>
</g>
<defs>
<clipPath id="clip0">
<rect width="38.8444" height="41.4341" fill="white" transform="translate(20.2666 17.7333)"/>
</clipPath>
</defs>
</svg>
