<svg width="81" height="81" viewBox="0 0 81 81" fill="none" xmlns="http://www.w3.org/2000/svg">
<circle cx="40.5" cy="40.5" r="40.5" fill="#E5F5F2"/>
<g clip-path="url(#clip0)">
<path fill-rule="evenodd" clip-rule="evenodd" d="M41.6886 46.5992V40.9786C41.6886 39.1545 43.084 37.6714 44.8033 37.6714H56.2419V34.1695C56.2419 32.5086 55.258 31.1205 53.9113 30.6675V30.67L49.8907 30.6359L49.842 30.4946H31.794L31.4506 30.6115L25.0847 30.6067L25.0726 30.5555C23.5237 30.8477 22.2769 32.2505 22.2769 34.055V53.4229C22.2769 55.4491 23.8549 57.2098 25.6643 57.2098H52.9737C54.7832 57.2098 56.2443 55.5635 56.2443 53.5374V49.9989H44.8058C43.0864 49.9989 41.6886 48.4233 41.6886 46.5992Z" fill="#019F78"/>
<path fill-rule="evenodd" clip-rule="evenodd" d="M58.755 40.3311H46.5615C45.2733 40.3311 44.2285 41.4708 44.2285 42.8759V44.8631C44.2285 46.2659 45.2733 47.4056 46.5615 47.4056H58.755C60.0433 47.4056 61.0905 46.2659 61.0905 44.8631V42.8759C61.0905 41.4683 60.0433 40.3311 58.755 40.3311ZM51.5344 45.0921H46.5128V42.6178H51.5344V45.0921Z" fill="#019F78"/>
<path fill-rule="evenodd" clip-rule="evenodd" d="M31.7964 30.4948L47.9448 24.9691L49.8443 30.4948H52.9737C53.3025 30.4948 53.6142 30.5654 53.9137 30.6652L50.5311 20.8242L24.79 29.3989L25.075 30.5581C25.2674 30.5216 25.4646 30.4972 25.6643 30.4972H31.7964V30.4948Z" fill="#019F78"/>
</g>
<defs>
<clipPath id="clip0">
<rect width="41.4" height="38.9647" fill="white" transform="translate(19.8 20.7)"/>
</clipPath>
</defs>
</svg>
