<svg width="76" height="76" viewBox="0 0 76 76" fill="none" xmlns="http://www.w3.org/2000/svg">
<circle cx="38" cy="38" r="38" fill="#E3E5FF"/>
<g clip-path="url(#clip0)">
<path d="M38.0001 19.1687C27.2734 19.1687 18.5779 28.3546 18.5779 39.6864C18.5779 43.448 19.5389 46.9716 21.212 50.0022C21.5903 50.6876 22.3113 51.0851 23.0625 51.0851H52.9377C53.6889 51.0851 54.4099 50.6876 54.7882 50.0022C56.4613 46.9716 57.4223 43.448 57.4223 39.6864C57.4223 28.3546 48.7268 19.1687 38.0001 19.1687ZM38.0001 23.7282C38.9921 23.7282 39.7926 24.4499 40.0448 25.4131C39.97 25.5741 39.8668 25.7144 39.8122 25.8882L39.1904 27.8595C38.8444 28.1081 38.4506 28.2877 38.0008 28.2877C36.8091 28.2877 35.8428 27.2668 35.8428 26.0079C35.8428 24.7491 36.8085 23.7282 38.0001 23.7282ZM25.052 44.2459C23.8603 44.2459 22.8939 43.225 22.8939 41.9661C22.8939 40.7073 23.8603 39.6864 25.052 39.6864C26.2436 39.6864 27.21 40.7073 27.21 41.9661C27.21 43.225 26.2436 44.2459 25.052 44.2459ZM28.289 32.8472C27.0974 32.8472 26.131 31.8263 26.131 30.5674C26.131 29.3086 27.0974 28.2877 28.289 28.2877C29.4806 28.2877 30.447 29.3086 30.447 30.5674C30.447 31.8263 29.4806 32.8472 28.289 32.8472ZM44.9307 27.6885L40.7947 40.7971C41.718 41.6334 42.3162 42.8595 42.3162 44.2459C42.3162 45.0808 42.0882 45.8524 41.7173 46.5256H34.2829C33.912 45.8524 33.6841 45.0808 33.6841 44.2459C33.6841 41.8279 35.4712 39.8695 37.7236 39.7156L41.8603 26.6064C42.1415 25.7116 43.056 25.2207 43.9077 25.5256C44.7554 25.8241 45.2126 26.793 44.9307 27.6885ZM45.9194 31.7636L46.966 28.4473C47.2 28.3554 47.4469 28.2884 47.7112 28.2884C48.9028 28.2884 49.8692 29.3093 49.8692 30.5681C49.8692 31.827 48.9028 32.8479 47.7112 32.8479C46.9438 32.8472 46.3024 32.4005 45.9194 31.7636ZM50.9483 44.2459C49.7566 44.2459 48.7902 43.225 48.7902 41.9661C48.7902 40.7073 49.7566 39.6864 50.9483 39.6864C52.1399 39.6864 53.1063 40.7073 53.1063 41.9661C53.1063 43.225 52.1399 44.2459 50.9483 44.2459Z" fill="#6167E9"/>
</g>
<defs>
<clipPath id="clip0">
<rect width="38.8444" height="36.4759" fill="white" transform="translate(18.5779 16.8889)"/>
</clipPath>
</defs>
</svg>
