<svg width="76" height="76" viewBox="0 0 76 76" fill="none" xmlns="http://www.w3.org/2000/svg">
<circle cx="38" cy="38" r="38" fill="#EBF7FF"/>
<path d="M37.4222 27.0396C35.5793 27.0396 33.9327 27.8933 32.8451 29.2286C32.1739 30.0536 31.7316 31.0452 31.5637 32.1012C31.3957 33.1572 31.5082 34.2395 31.8896 35.2368C32.2709 36.2341 32.9074 37.1103 33.7334 37.7752C34.5594 38.4401 35.5452 38.8698 36.5892 39.02C38.0085 36.2429 40.4346 34.1328 43.3568 33.1338V33.0593C43.3568 31.6036 42.8475 30.2683 41.9994 29.2286C40.9118 27.8933 39.2652 27.0396 37.4222 27.0396ZM56.1474 36.7194C54.8551 35.1852 53.2025 34.006 51.3424 33.2906C49.4822 32.5751 47.4743 32.3466 45.504 32.6259C45.4444 31.4389 45.1299 30.2795 44.5826 29.2286H53.6074C54.466 29.2286 55.2893 29.5745 55.8964 30.1903C56.5034 30.8061 56.8445 31.6412 56.8445 32.5121V33.6066C56.8445 34.6573 56.6071 35.7168 56.1474 36.7194ZM35.7109 41.2681C35.4196 42.3123 35.2642 43.4134 35.2642 44.5516C35.2642 48.4853 37.1223 51.9768 39.9989 54.1723C39.1486 54.3273 38.2862 54.4042 37.4222 54.4022C30.646 54.4022 26.6321 49.9607 26.6321 45.6461V44.5516C26.631 44.1201 26.7139 43.6926 26.8762 43.2937C27.0385 42.8948 27.2769 42.5324 27.5777 42.2273C27.8785 41.9221 28.2358 41.6803 28.629 41.5157C29.0223 41.3511 29.4437 41.267 29.8691 41.2681H35.7109ZM25.1539 41.8898C20.6004 40.6399 18 37.0805 18 33.6066V32.5121C18 31.6412 18.341 30.8061 18.9481 30.1903C19.5552 29.5745 20.3785 29.2286 21.237 29.2286H30.2641C29.6488 30.4089 29.328 31.7242 29.3296 33.0593C29.3282 34.1897 29.5576 35.3081 30.0032 36.3442C30.4489 37.3802 31.1013 38.3114 31.9193 39.0791H29.8691C28.9076 39.0789 27.9634 39.3393 27.1344 39.8335C26.3053 40.3276 25.6216 41.0376 25.1539 41.8898ZM28.7901 15C30.3641 15 31.8736 15.6342 32.9865 16.7632C34.0995 17.8921 34.7247 19.4232 34.7247 21.0198C34.7247 22.6163 34.0995 24.1475 32.9865 25.2764C31.8736 26.4053 30.3641 27.0396 28.7901 27.0396C27.2162 27.0396 25.7067 26.4053 24.5938 25.2764C23.4808 24.1475 22.8556 22.6163 22.8556 21.0198C22.8556 19.4232 23.4808 17.8921 24.5938 16.7632C25.7067 15.6342 27.2162 15 28.7901 15ZM46.0543 15C47.6283 15 49.1378 15.6342 50.2507 16.7632C51.3637 17.8921 51.9889 19.4232 51.9889 21.0198C51.9889 22.6163 51.3637 24.1475 50.2507 25.2764C49.1378 26.4053 47.6283 27.0396 46.0543 27.0396C44.4804 27.0396 42.9709 26.4053 41.858 25.2764C40.745 24.1475 40.1198 22.6163 40.1198 21.0198C40.1198 19.4232 40.745 17.8921 41.858 16.7632C42.9709 15.6342 44.4804 15 46.0543 15ZM47.1334 54.4022C49.7089 54.4022 52.179 53.3644 54.0002 51.517C55.8213 49.6697 56.8445 47.1642 56.8445 44.5516C56.8445 41.9391 55.8213 39.4336 54.0002 37.5863C52.179 35.7389 49.7089 34.7011 47.1334 34.7011C44.5578 34.7011 42.0878 35.7389 40.2666 37.5863C38.4454 39.4336 37.4222 41.9391 37.4222 44.5516C37.4222 47.1642 38.4454 49.6697 40.2666 51.517C42.0878 53.3644 44.5578 54.4022 47.1334 54.4022ZM47.1334 39.0791C47.4195 39.0791 47.694 39.1944 47.8963 39.3997C48.0987 39.6049 48.2124 39.8833 48.2124 40.1736V43.4571H51.4494C51.7356 43.4571 52.01 43.5724 52.2124 43.7777C52.4147 43.983 52.5284 44.2614 52.5284 44.5516C52.5284 44.8419 52.4147 45.1203 52.2124 45.3256C52.01 45.5308 51.7356 45.6461 51.4494 45.6461H48.2124V48.9297C48.2124 49.2199 48.0987 49.4983 47.8963 49.7036C47.694 49.9088 47.4195 50.0242 47.1334 50.0242C46.8472 50.0242 46.5727 49.9088 46.3704 49.7036C46.168 49.4983 46.0543 49.2199 46.0543 48.9297V45.6461H42.8173C42.5311 45.6461 42.2567 45.5308 42.0543 45.3256C41.852 45.1203 41.7383 44.8419 41.7383 44.5516C41.7383 44.2614 41.852 43.983 42.0543 43.7777C42.2567 43.5724 42.5311 43.4571 42.8173 43.4571H46.0543V40.1736C46.0543 39.8833 46.168 39.6049 46.3704 39.3997C46.5727 39.1944 46.8472 39.0791 47.1334 39.0791Z" fill="#3DAFFF"/>
</svg>
