<svg width="76" height="76" viewBox="0 0 76 76" fill="none" xmlns="http://www.w3.org/2000/svg">
<circle cx="38" cy="38" r="38" fill="#DAFFFF"/>
<path d="M57.4221 38.0001C57.4221 27.2732 48.7268 18.5779 37.9999 18.5779C27.273 18.5779 18.5776 27.2732 18.5776 38.0001C18.5776 48.727 27.273 57.4223 37.9999 57.4223C48.7268 57.4223 57.4221 48.727 57.4221 38.0001ZM29.2599 31.6762C29.9338 30.9343 31.037 30.2312 32.6587 30.2312C34.8962 30.2312 36.3373 31.7695 36.8442 33.4572C37.3356 35.1023 37.0385 37.1378 35.6401 38.542C35.155 39.0083 34.6406 39.4429 34.0999 39.8433L34.0222 39.9035C33.4784 40.323 32.9928 40.7037 32.5655 41.1271C32.0703 41.6243 31.6643 42.1662 31.4293 42.8557H35.5721C35.9584 42.8557 36.3289 43.0091 36.6021 43.2823C36.8753 43.5555 37.0287 43.926 37.0287 44.3123C37.0287 44.6987 36.8753 45.0692 36.6021 45.3423C36.3289 45.6155 35.9584 45.769 35.5721 45.769H29.7454C29.3591 45.769 28.9886 45.6155 28.7154 45.3423C28.4422 45.0692 28.2887 44.6987 28.2887 44.3123C28.2887 41.8904 29.3065 40.2667 30.5107 39.0664C31.0855 38.4915 31.7109 38.0079 32.2392 37.5981L32.2451 37.5942C32.8005 37.1649 33.2317 36.8309 33.5755 36.4871C34.1038 35.9549 34.2883 35.079 34.0533 34.2924C33.8299 33.5524 33.3346 33.1445 32.6587 33.1445C31.9731 33.1445 31.6197 33.4106 31.4157 33.6359C31.2964 33.7676 31.1993 33.9178 31.1283 34.0807V34.0865C31.0093 34.4543 30.7491 34.7598 30.4049 34.9357C30.0607 35.1116 29.6607 35.1436 29.2929 35.0246C28.9251 34.9056 28.6196 34.6454 28.4437 34.3012C28.2678 33.957 28.2358 33.557 28.3548 33.1892L28.4228 33.0028C28.6223 32.5156 28.9049 32.0668 29.2579 31.6762H29.2599ZM40.4276 30.2312C40.814 30.2312 41.1845 30.3847 41.4577 30.6579C41.7308 30.931 41.8843 31.3015 41.8843 31.6879V37.029H44.7976V31.6879C44.7976 31.3015 44.9511 30.931 45.2243 30.6579C45.4975 30.3847 45.868 30.2312 46.2543 30.2312C46.6406 30.2312 47.0111 30.3847 47.2843 30.6579C47.5575 30.931 47.711 31.3015 47.711 31.6879V44.2541C47.711 44.6404 47.5575 45.0109 47.2843 45.2841C47.0111 45.5573 46.6406 45.7107 46.2543 45.7107C45.868 45.7107 45.4975 45.5573 45.2243 45.2841C44.9511 45.0109 44.7976 44.6404 44.7976 44.2541V39.9423H40.4276C40.0413 39.9423 39.6708 39.7889 39.3976 39.5157C39.1244 39.2425 38.971 38.872 38.971 38.4857V31.6879C38.971 31.3015 39.1244 30.931 39.3976 30.6579C39.6708 30.3847 40.0413 30.2312 40.4276 30.2312Z" fill="#21D5D5"/>
</svg>
