<svg width="60" height="60" viewBox="0 0 60 60" fill="none" xmlns="http://www.w3.org/2000/svg">
<rect width="60" height="60" rx="30" fill="#FEE6F8"/>
<rect x="16.5471" y="14.6226" width="23.01" height="26.9724" rx="1" fill="#A46799"/>
<rect x="19.9272" y="17.603" width="23.01" height="26.9724" fill="#BD7BB1"/>
<path d="M42.5925 45.3773H20.0383C19.7305 45.3773 19.4788 45.1256 19.4788 44.8178V17.3859C19.4788 17.0782 19.7305 16.8264 20.0383 16.8264H42.8935C43.2012 16.8264 43.453 17.0782 43.453 17.3859V44.7708C43.453 45.0786 43.2012 45.3303 42.8935 45.3303C42.5858 45.3303 42.334 45.0786 42.334 44.7708V17.9454H20.5977V44.2583H42.5925C42.9002 44.2583 43.152 44.5101 43.152 44.8178C43.152 45.1256 42.9002 45.3773 42.5925 45.3773Z" fill="#BD7BB1"/>
<path d="M36.5209 27.1043H27.3229C26.9049 27.1029 26.5044 26.9362 26.2089 26.6406C25.9133 26.345 25.7466 25.9446 25.7451 25.5266V24.6985C25.7451 23.8481 26.1983 23.0536 26.9312 22.6228C27.1438 22.4941 27.3173 22.3095 27.4292 22.0857L28.123 20.7037C28.3515 20.2425 28.705 19.8547 29.1433 19.5847C29.5815 19.3146 30.0868 19.1731 30.6015 19.1763H33.2479C34.3054 19.1763 35.2509 19.7638 35.7209 20.7093L36.4146 22.0913C36.5265 22.3151 36.7 22.4997 36.9126 22.6284C37.6455 23.0592 38.0987 23.8537 38.0987 24.7041V25.5322C38.0987 26.3938 37.3882 27.1043 36.5209 27.1043ZM30.5959 20.2953C29.9693 20.2953 29.4042 20.6422 29.1189 21.2073L28.4251 22.5892C28.2181 23.0033 27.8936 23.3501 27.4907 23.5907C27.0991 23.8201 26.8529 24.2453 26.8529 24.7041V25.5322C26.8529 25.7839 27.0599 25.9909 27.3117 25.9909H36.5098C36.7615 25.9909 36.9685 25.7839 36.9685 25.5322V24.7041C36.9685 24.2509 36.7224 23.8201 36.3307 23.5907C35.9289 23.3543 35.6044 23.0064 35.3964 22.5892L34.7026 21.2073C34.567 20.9318 34.3565 20.7001 34.0953 20.5388C33.834 20.3775 33.5326 20.2931 33.2255 20.2953H30.5959Z" fill="white"/>
<path d="M27.642 28.9281H27.3399C26.9719 28.9281 26.619 28.782 26.3588 28.5217C26.0985 28.2615 25.9523 27.9086 25.9523 27.5406V26.1363C25.9523 25.8286 26.2041 25.5768 26.5118 25.5768C26.8196 25.5768 27.0713 25.8286 27.0713 26.1363V27.5406C27.0713 27.6917 27.1944 27.8092 27.3399 27.8092H27.642C27.7875 27.8092 27.9106 27.6861 27.9106 27.5406V26.5503C27.9106 26.2426 28.1623 25.9908 28.4701 25.9908C28.7778 25.9908 29.0296 26.2426 29.0296 26.5503V27.5406C29.024 28.3015 28.4029 28.9281 27.642 28.9281ZM36.4988 28.9281H36.1967C35.8287 28.9281 35.4757 28.782 35.2155 28.5217C34.9553 28.2615 34.8091 27.9086 34.8091 27.5406V26.5503C34.8091 26.2426 35.0609 25.9908 35.3686 25.9908C35.6763 25.9908 35.9281 26.2426 35.9281 26.5503V27.5406C35.9281 27.6861 36.0512 27.8092 36.1967 27.8092H36.4988C36.6443 27.8092 36.7673 27.6861 36.7673 27.5406V26.1419C36.7673 25.8342 37.0191 25.5824 37.3268 25.5824C37.6346 25.5824 37.8863 25.8342 37.8863 26.1419V27.5406C37.8863 28.3015 37.2653 28.9281 36.4988 28.9281ZM28.4645 25.2635H27.8994C27.5917 25.2635 27.3399 25.0117 27.3399 24.704C27.3399 24.3963 27.5917 24.1445 27.8994 24.1445H28.4645C28.7722 24.1445 29.024 24.3963 29.024 24.704C29.024 25.0117 28.7778 25.2635 28.4645 25.2635ZM35.9337 25.2635H35.3686C35.0609 25.2635 34.8091 25.0117 34.8091 24.704C34.8091 24.3963 35.0609 24.1445 35.3686 24.1445H35.9337C36.2414 24.1445 36.4932 24.3963 36.4932 24.704C36.4932 25.0117 36.2414 25.2635 35.9337 25.2635ZM36.1855 23.2996H27.6476C27.3399 23.2996 27.0881 23.0479 27.0881 22.7402C27.0881 22.4324 27.3399 22.1807 27.6476 22.1807H36.1855C36.4932 22.1807 36.745 22.4324 36.745 22.7402C36.745 23.0535 36.4988 23.2996 36.1855 23.2996ZM39.9564 30.9479H23.8822C23.5745 30.9479 23.3227 30.6961 23.3227 30.3884C23.3227 30.0807 23.5745 29.8289 23.8822 29.8289H39.9564C40.2642 29.8289 40.5159 30.0807 40.5159 30.3884C40.5159 30.6961 40.2642 30.9479 39.9564 30.9479ZM32.8509 34.1986H23.8822C23.5745 34.1986 23.3227 33.9468 23.3227 33.6391C23.3227 33.3314 23.5745 33.0796 23.8822 33.0796H32.8509C33.1586 33.0796 33.4104 33.3314 33.4104 33.6391C33.4104 33.9468 33.1586 34.1986 32.8509 34.1986ZM39.9676 34.1986H35.3686C35.0609 34.1986 34.8091 33.9468 34.8091 33.6391C34.8091 33.3314 35.0609 33.0796 35.3686 33.0796H39.9676C40.2754 33.0796 40.5271 33.3314 40.5271 33.6391C40.5271 33.9468 40.281 34.1986 39.9676 34.1986ZM36.1855 37.6283H23.8766C23.5689 37.6283 23.3171 37.3765 23.3171 37.0688C23.3171 36.761 23.5689 36.5093 23.8766 36.5093H36.1855C36.4932 36.5093 36.745 36.761 36.745 37.0688C36.745 37.3765 36.4988 37.6283 36.1855 37.6283ZM36.1855 41.2706H31.4689C31.1612 41.2706 30.9095 41.0188 30.9095 40.7111C30.9095 40.4033 31.1612 40.1516 31.4689 40.1516H36.1855C36.4932 40.1516 36.745 40.4033 36.745 40.7111C36.745 41.0188 36.4988 41.2706 36.1855 41.2706ZM28.9512 41.2706H23.8822C23.5745 41.2706 23.3227 41.0188 23.3227 40.7111C23.3227 40.4033 23.5745 40.1516 23.8822 40.1516H28.9512C29.259 40.1516 29.5107 40.4033 29.5107 40.7111C29.5107 41.0188 29.259 41.2706 28.9512 41.2706Z" fill="white"/>
</svg>
