<svg width="60" height="60" viewBox="0 0 60 60" fill="none" xmlns="http://www.w3.org/2000/svg">
<rect width="60" height="60" rx="30" fill="#E9F2F8"/>
<path d="M38.3333 24.8685V18.6781C38.3332 17.7342 37.9582 16.8291 37.2908 16.1617C36.6234 15.4943 35.7182 15.1193 34.7744 15.1191H25.2256C24.2818 15.1193 23.3766 15.4943 22.7092 16.1617C22.0418 16.8291 21.6668 17.7342 21.6667 18.6781V24.8685C19.1149 27.1572 17.5 30.4691 17.5 34.1668C17.5 38.7221 19.9446 42.6965 23.5857 44.881H36.4143C40.0554 42.6965 42.5 38.7221 42.5 34.1668C42.5 30.4691 40.8851 27.1572 38.3333 24.8685ZM23.7958 29.534C22.7964 30.8714 22.2581 32.4972 22.2619 34.1668C22.2619 34.4825 22.1365 34.7853 21.9132 35.0086C21.69 35.2318 21.3872 35.3572 21.0714 35.3572C20.7557 35.3572 20.4529 35.2318 20.2296 35.0086C20.0064 34.7853 19.881 34.4825 19.881 34.1668C19.881 31.9804 20.5762 29.8757 21.922 28.081C22.1393 27.8019 22.4756 27.6191 22.8571 27.6191C23.1729 27.6191 23.4757 27.7446 23.6989 27.9678C23.9222 28.1911 24.0476 28.4939 24.0476 28.8096C24.0476 29.0834 23.9512 29.3328 23.7958 29.534ZM24.6429 22.8858V18.6906C24.6429 18.5327 24.7056 18.3813 24.8172 18.2697C24.9288 18.158 25.0802 18.0953 25.2381 18.0953H34.7619C34.9198 18.0953 35.0712 18.158 35.1828 18.2697C35.2944 18.3813 35.3571 18.5327 35.3571 18.6906V22.8858C33.7315 22.1126 31.9202 21.6668 30 21.6668C28.0798 21.6668 26.2685 22.1126 24.6429 22.8858Z" fill="#3DAFFF"/>
</svg>
