<svg width="30" height="31" viewBox="0 0 30 31" fill="none" xmlns="http://www.w3.org/2000/svg">
<ellipse cx="15" cy="15.5888" rx="15" ry="15.2155" fill="#FF9739"/>
<path d="M9 9C8.20435 9 7.44129 9.31033 6.87868 9.86272C6.31607 10.4151 6 11.1643 6 11.9455V12.2415L15 17L24 12.243V11.9455C24 11.1643 23.6839 10.4151 23.1213 9.86272C22.5587 9.31033 21.7956 9 21 9H9Z" fill="white"/>
<path d="M24 13L15.3555 17.6571C15.2462 17.7159 15.1241 17.7467 15 17.7467C14.8759 17.7467 14.7538 17.7159 14.6445 17.6571L6 13V19.9983C6 20.7944 6.31607 21.5579 6.87868 22.1208C7.44129 22.6838 8.20435 23 9 23H21C21.7956 23 22.5587 22.6838 23.1213 22.1208C23.6839 21.5579 24 20.7944 24 19.9983V13Z" fill="white"/>
</svg>
