<svg width="60" height="60" viewBox="0 0 60 60" fill="none" xmlns="http://www.w3.org/2000/svg">
<g opacity="0.6">
<path d="M34.58 41.42C35.0963 41.6571 35.678 41.7113 36.2292 41.5736C36.7805 41.4359 37.2683 41.1146 37.6125 40.6625L38.5 39.5C38.9657 38.879 39.5697 38.375 40.2639 38.0279C40.9582 37.6807 41.7238 37.5 42.5 37.5H50C51.3261 37.5 52.5979 38.0268 53.5355 38.9645C54.4732 39.9021 55 41.1739 55 42.5V50C55 51.3261 54.4732 52.5979 53.5355 53.5355C52.5979 54.4732 51.3261 55 50 55C38.0653 55 26.6193 50.2589 18.1802 41.8198C9.74106 33.3807 5 21.9347 5 10C5 8.67392 5.52678 7.40215 6.46447 6.46447C7.40215 5.52678 8.67392 5 10 5H17.5C18.8261 5 20.0979 5.52678 21.0355 6.46447C21.9732 7.40215 22.5 8.67392 22.5 10V17.5C22.5 18.2762 22.3193 19.0418 21.9721 19.7361C21.625 20.4303 21.121 21.0343 20.5 21.5L19.33 22.3775C18.871 22.7279 18.5475 23.2265 18.4145 23.7884C18.2814 24.3503 18.347 24.9409 18.6 25.46C22.0167 32.3997 27.6361 38.012 34.58 41.42Z" stroke="white" stroke-width="2.5" stroke-linecap="round" stroke-linejoin="round"/>
</g>
</svg>
