<svg width="30" height="31" viewBox="0 0 30 31" fill="none" xmlns="http://www.w3.org/2000/svg">
<ellipse cx="15" cy="15.5888" rx="15" ry="15.2155" fill="#FF9739"/>
<path d="M7.01327 15.8736L10.4618 17.178L11.8062 21.5654C11.8646 21.8619 12.2153 21.9212 12.4491 21.7433L14.378 20.1425C14.5533 19.9646 14.8456 19.9646 15.0794 20.1425L18.528 22.6919C18.7618 22.8698 19.1125 22.7512 19.1709 22.4548L21.7427 10.0039C21.8012 9.70745 21.5089 9.411 21.2167 9.52958L7.01327 15.1028C6.66257 15.2214 6.66257 15.755 7.01327 15.8736ZM11.6308 16.5258L18.4111 12.3162C18.528 12.2569 18.6449 12.4348 18.528 12.4941L12.9752 17.7709C12.7998 17.9487 12.6245 18.1859 12.6245 18.4823L12.4491 19.9053C12.4491 20.0832 12.1569 20.1425 12.0984 19.9053L11.397 17.2965C11.2217 17.0001 11.3386 16.6444 11.6308 16.5258Z" fill="white"/>
</svg>
