<svg width="30" height="31" viewBox="0 0 30 31" fill="none" xmlns="http://www.w3.org/2000/svg">
<ellipse cx="15" cy="15.5888" rx="15" ry="15.2155" fill="#FF9739"/>
<path d="M19.6904 8.39646C16.8318 7.8427 13.8632 7.8427 11.0046 8.39646C9.74018 8.67334 8.14594 10.2239 7.87107 11.4421C7.37631 13.8233 7.37631 16.2598 7.87107 18.6409C8.20092 19.8592 9.79516 21.4097 11.0046 21.6866C11.0596 21.6866 11.1145 21.742 11.1145 21.7974V25.286C11.1145 25.4521 11.3344 25.5629 11.4444 25.3968L13.0936 23.6801C13.0936 23.6801 14.413 22.2957 14.6329 22.0742C14.6329 22.0742 14.6878 22.0189 14.7428 22.0189C16.392 22.0742 18.0962 21.9081 19.7454 21.6312C21.0098 21.3543 22.6041 19.8038 22.8789 18.5856C23.3737 16.2044 23.3737 13.7679 22.8789 11.3867C22.5491 10.2239 20.9548 8.67334 19.6904 8.39646ZM19.7454 18.8071C19.4705 19.3608 19.1407 19.8038 18.591 20.0807C18.426 20.1361 18.2611 20.1915 18.0962 20.2468C17.8763 20.1915 17.7114 20.1361 17.5465 20.0807C15.7873 19.3608 14.1381 18.3641 12.8187 16.9243C12.1041 16.0937 11.4993 15.1523 11.0046 14.1555C10.7847 13.6571 10.5648 13.2141 10.3999 12.7158C10.2349 12.2727 10.5098 11.8297 10.7847 11.4975C11.0596 11.1652 11.3894 10.9437 11.7742 10.7776C12.0491 10.6115 12.324 10.7222 12.5438 10.9437C12.9836 11.4975 13.4234 12.0512 13.7533 12.6604C13.9732 13.048 13.9182 13.491 13.5334 13.7679C13.4234 13.8233 13.3685 13.8786 13.2585 13.9894C13.2035 14.0448 13.0936 14.1001 13.0386 14.2109C12.9287 14.377 12.9287 14.5431 12.9836 14.7093C13.4234 15.9829 14.248 16.9797 15.5124 17.5334C15.7323 17.6442 15.8973 17.6996 16.1721 17.6996C16.5569 17.6442 16.7219 17.2012 16.9967 16.9797C17.2716 16.7582 17.6014 16.7582 17.9313 16.9243C18.2062 17.0904 18.481 17.3119 18.8109 17.5334C19.0857 17.7549 19.3606 17.9211 19.6355 18.1426C19.8004 18.2533 19.8554 18.5302 19.7454 18.8071ZM17.4365 14.6539C17.3266 14.6539 17.3815 14.6539 17.4365 14.6539C17.2166 14.6539 17.1616 14.5431 17.1067 14.377C17.1067 14.2663 17.1067 14.1001 17.0517 13.9894C16.9967 13.7679 16.8868 13.5464 16.6669 13.3803C16.5569 13.3249 16.447 13.2695 16.337 13.2141C16.1721 13.1588 16.0622 13.1588 15.8973 13.1588C15.7323 13.1034 15.6774 12.9926 15.6774 12.8265C15.6774 12.7158 15.8423 12.605 15.9522 12.605C16.8318 12.6604 17.4915 13.1588 17.6014 14.2109C17.6014 14.2663 17.6014 14.377 17.6014 14.4324C17.6014 14.5431 17.5465 14.6539 17.4365 14.6539ZM16.8868 12.2174C16.6119 12.1066 16.337 11.9959 16.0072 11.9405C15.8973 11.9405 15.7323 11.8851 15.6224 11.8851C15.4575 11.8851 15.3475 11.7744 15.4025 11.6082C15.4025 11.4421 15.5124 11.3314 15.6774 11.3867C16.2271 11.4421 16.7219 11.5529 17.2166 11.7744C18.2062 12.2727 18.7559 13.1034 18.9208 14.2109C18.9208 14.2663 18.9208 14.3216 18.9208 14.377C18.9208 14.4878 18.9208 14.5985 18.9208 14.7646C18.9208 14.82 18.9208 14.8754 18.9208 14.9308C18.8658 15.1523 18.481 15.2077 18.426 14.9308C18.426 14.8754 18.3711 14.7647 18.3711 14.7093C18.3711 14.2109 18.2611 13.7125 18.0412 13.2695C17.7114 12.7711 17.3266 12.4389 16.8868 12.2174ZM19.8554 15.5399C19.6904 15.5399 19.5805 15.3738 19.5805 15.2077C19.5805 14.8754 19.5255 14.5431 19.4705 14.2109C19.2507 12.4389 17.8213 10.9991 16.1171 10.7222C15.8423 10.6669 15.5674 10.6669 15.3475 10.6115C15.1826 10.6115 14.9627 10.6115 14.9077 10.39C14.8527 10.2239 15.0177 10.0577 15.1826 10.0577C15.2376 10.0577 15.2925 10.0577 15.2925 10.0577C17.5465 10.1131 15.4025 10.0577 15.2925 10.0577C17.6014 10.1131 19.5255 11.6636 19.9103 13.9894C19.9653 14.377 20.0203 14.7647 20.0203 15.2077C20.1302 15.3738 20.0203 15.5399 19.8554 15.5399Z" fill="white"/>
</svg>
