<svg width="30" height="31" viewBox="0 0 30 31" fill="none" xmlns="http://www.w3.org/2000/svg">
<ellipse cx="15" cy="15.5888" rx="15" ry="15.2155" fill="#FF9739"/>
<path d="M20.9451 9.55018C19.4634 8.0524 17.4878 7.22031 15.4024 7.22031C11.0671 7.22031 7.55488 10.7706 7.55488 15.153C7.55488 16.5398 7.93902 17.9266 8.59756 19.0916L7.5 23.1966L11.6707 22.0871C12.8232 22.6973 14.0854 23.0301 15.4024 23.0301C19.7378 23.0301 23.25 19.4799 23.25 15.0975C23.1951 13.045 22.4268 11.048 20.9451 9.55018ZM19.189 17.9821C19.0244 18.4259 18.2561 18.8697 17.872 18.9251C17.5427 18.9806 17.1037 18.9806 16.6646 18.8697C16.3902 18.7587 16.0061 18.6478 15.5671 18.4259C13.5915 17.5938 12.3293 15.5967 12.2195 15.4303C12.1098 15.3194 11.3963 14.3763 11.3963 13.3778C11.3963 12.3793 11.8902 11.9355 12.0549 11.7136C12.2195 11.4917 12.439 11.4917 12.6037 11.4917C12.7134 11.4917 12.878 11.4917 12.9878 11.4917C13.0976 11.4917 13.2622 11.4363 13.4268 11.8246C13.5915 12.2129 13.9756 13.2114 14.0305 13.2669C14.0854 13.3778 14.0854 13.4888 14.0305 13.5997C13.9756 13.7107 13.9207 13.8216 13.811 13.9326C13.7012 14.0435 13.5915 14.2099 13.5366 14.2654C13.4268 14.3763 13.3171 14.4873 13.4268 14.6537C13.5366 14.8756 13.9207 15.4858 14.5244 16.0405C15.2927 16.7062 15.8963 16.9281 16.1159 17.0391C16.3354 17.15 16.4451 17.0945 16.5549 16.9836C16.6646 16.8726 17.0488 16.4288 17.1585 16.207C17.2683 15.9851 17.4329 16.0405 17.5976 16.096C17.7622 16.1515 18.75 16.6507 18.9146 16.7617C19.1341 16.8726 19.2439 16.9281 19.2988 16.9836C19.3537 17.15 19.3537 17.5383 19.189 17.9821Z" fill="white"/>
</svg>
