<svg width="30" height="59" viewBox="0 0 30 59" fill="none" xmlns="http://www.w3.org/2000/svg">
<path d="M17 2C17 0.89543 16.1046 0 15 0C13.8954 0 13 0.89543 13 2H17ZM13.5858 58.4142C14.3668 59.1953 15.6332 59.1953 16.4142 58.4142L29.1421 45.6863C29.9232 44.9052 29.9232 43.6389 29.1421 42.8579C28.3611 42.0768 27.0948 42.0768 26.3137 42.8579L15 54.1716L3.68629 42.8579C2.90524 42.0768 1.63891 42.0768 0.857864 42.8579C0.0768156 43.6389 0.0768156 44.9052 0.857864 45.6863L13.5858 58.4142ZM13 2V57H17V2H13Z" fill="#FF9739"/>
</svg>
