<svg width="33" height="30" viewBox="0 0 33 30" fill="none" xmlns="http://www.w3.org/2000/svg">
<g clip-path="url(#clip0)">
<path d="M7.07304 24.3319C6.78985 24.044 6.45142 23.8052 6.07423 23.6272C5.68593 23.4418 5.26248 23.325 4.82627 23.2828C4.76422 23.2743 4.70161 23.2696 4.63886 23.2688H4.41838C3.7191 23.2609 3.03352 23.4452 2.45162 23.7974C1.88415 24.1392 1.43531 24.6203 1.15736 25.1848C1.06279 25.385 0.988979 25.5928 0.936868 25.8055C0.829638 26.2379 0.829638 26.6865 0.936868 27.1189C0.988884 27.3322 1.0627 27.5406 1.15736 27.7415C1.43997 28.3007 1.88804 28.7775 2.45162 29.119C3.03144 29.4741 3.71687 29.6599 4.41617 29.6515C4.68753 29.6529 4.95819 29.6267 5.22315 29.5735C5.47085 29.5199 5.71229 29.4448 5.94415 29.3492L6.04777 29.2972C6.10115 29.2681 6.15722 29.2433 6.21534 29.2231L6.36969 29.169L6.44906 29.2791C6.5215 29.3927 6.62577 29.4868 6.75125 29.5518C6.87673 29.6169 7.01895 29.6506 7.16344 29.6495C7.38205 29.6486 7.59166 29.5703 7.74774 29.4313C7.83049 29.3668 7.89711 29.287 7.94312 29.1972C7.98914 29.1074 8.01349 29.0098 8.01453 28.9108V26.4602C8.01134 26.0651 7.92451 25.6743 7.75876 25.309C7.59359 24.95 7.36164 24.6195 7.07304 24.3319ZM6.16022 27.1349C6.06282 27.3367 5.92444 27.5201 5.75232 27.6755C5.57897 27.8304 5.37368 27.9529 5.14819 28.0358C4.91371 28.1226 4.66276 28.1668 4.40955 28.166C4.16626 28.1656 3.92581 28.1186 3.70399 28.0278C3.48325 27.9393 3.28109 27.8167 3.10647 27.6654C2.92973 27.5114 2.78616 27.3287 2.68314 27.1269C2.57486 26.9177 2.51912 26.6893 2.51997 26.4582C2.52036 26.2332 2.57295 26.0108 2.67431 25.8055C2.77362 25.6013 2.91422 25.4159 3.08883 25.2589C3.26221 25.1028 3.46544 24.9766 3.68856 24.8865C3.9166 24.7959 4.16283 24.7491 4.41176 24.7491C4.66068 24.7491 4.90692 24.7959 5.13496 24.8865C5.36154 24.9752 5.56791 25.1015 5.7435 25.2589C5.91806 25.416 6.05866 25.6014 6.15801 25.8055C6.25938 26.0108 6.31197 26.2332 6.31236 26.4582C6.31527 26.6929 6.26342 26.9256 6.16022 27.1409V27.1349Z" fill="#393939"/>
<path d="M12.9359 23.2855C12.4698 23.3014 12.0105 23.3929 11.5799 23.5558C11.1659 23.7112 10.787 23.9345 10.462 24.2145C10.1474 24.4946 9.89386 24.8261 9.71458 25.1915C9.525 25.5642 9.4279 25.9702 9.43015 26.3808V28.9315C9.42637 29.0307 9.44561 29.1296 9.48664 29.2217C9.52766 29.3138 9.58955 29.3971 9.66828 29.466C9.74214 29.5323 9.83006 29.5842 9.92672 29.6186C10.0234 29.6531 10.1268 29.6693 10.2305 29.6662C10.4509 29.6773 10.6672 29.609 10.8325 29.476C10.9098 29.4154 10.9725 29.3409 11.0165 29.2571C11.0606 29.1734 11.085 29.0823 11.0882 28.9895V26.4749C11.0819 26.2415 11.13 26.0095 11.2293 25.7941C11.3237 25.5928 11.4591 25.4094 11.6284 25.2536C11.8023 25.0965 12.0088 24.9723 12.2358 24.8881C12.4629 24.8039 12.7061 24.7614 12.9513 24.7631C13.1754 24.7602 13.3898 24.68 13.5511 24.5388C13.6277 24.4739 13.6885 24.3951 13.7295 24.3075C13.7705 24.2199 13.7909 24.1255 13.7892 24.0303C13.7746 23.8298 13.6797 23.6411 13.5224 23.4997C13.4463 23.4291 13.3548 23.3737 13.2539 23.3368C13.1529 23.2999 13.0447 23.2825 12.9359 23.2855Z" fill="#393939"/>
<path d="M21.3126 27.9541C21.2685 27.8698 21.2045 27.7953 21.1251 27.7359C20.9629 27.6014 20.7494 27.5296 20.5298 27.5357H20.5144C20.2939 27.532 20.08 27.6035 19.9147 27.7359C19.7552 27.8747 19.565 27.9812 19.3568 28.0482C19.1156 28.1223 18.8617 28.1568 18.6072 28.1504C18.3464 28.1516 18.0882 28.1039 17.8487 28.0102C17.62 27.9206 17.4137 27.7899 17.2423 27.6258C17.0861 27.4628 16.965 27.2747 16.8852 27.0712C16.8014 26.859 16.7654 26.6336 16.7793 26.4085V24.7648H18.6535C18.7606 24.7635 18.8663 24.742 18.9639 24.7017C19.0614 24.6614 19.1487 24.6031 19.2201 24.5305C19.2991 24.4635 19.3625 24.3829 19.4066 24.2933C19.4508 24.2038 19.4748 24.1071 19.4773 24.009C19.4798 23.9109 19.4606 23.8134 19.421 23.7221C19.3814 23.6308 19.3221 23.5476 19.2466 23.4774C19.1701 23.4064 19.0773 23.3515 18.9747 23.3169C18.8722 23.2823 18.7625 23.2687 18.6535 23.2772H16.7793V21.8437C16.7834 21.7485 16.7635 21.6538 16.7211 21.5667C16.6787 21.4796 16.6149 21.4024 16.5346 21.3412C16.3534 21.2063 16.1249 21.1353 15.8908 21.141C15.66 21.1351 15.4348 21.2064 15.258 21.3412C15.1777 21.4024 15.1139 21.4796 15.0715 21.5667C15.029 21.6538 15.0091 21.7485 15.0132 21.8437V26.3965C15.0045 26.8571 15.1053 27.3139 15.3087 27.7359C15.4976 28.1242 15.7714 28.4736 16.1135 28.763C16.4581 29.0508 16.861 29.2751 17.2997 29.4237C17.7617 29.5797 18.251 29.6584 18.7439 29.6559C19.1979 29.6594 19.648 29.579 20.0668 29.4197C20.4876 29.2556 20.8717 29.0228 21.2001 28.733C21.2706 28.6698 21.3235 28.5922 21.3544 28.5067C21.3882 28.4159 21.4032 28.3202 21.3985 28.2244C21.3901 28.13 21.3609 28.0381 21.3126 27.9541Z" fill="#393939"/>
<path d="M32.758 28.387L30.628 26.461L32.7557 24.5349C32.8291 24.4652 32.8863 24.3829 32.9242 24.2928C32.962 24.2027 32.9798 24.1067 32.9762 24.0104C32.9803 23.9155 32.9628 23.8208 32.9249 23.7323C32.8869 23.6438 32.8294 23.5633 32.7557 23.4958C32.6029 23.3536 32.3947 23.2716 32.1759 23.2676H32.167C32.0657 23.2681 31.9655 23.2873 31.8726 23.3241C31.7797 23.361 31.6961 23.4146 31.6269 23.4818L29.4506 25.4098L27.3207 23.4998C27.1605 23.3661 26.9556 23.285 26.7386 23.2696C26.6295 23.2656 26.5208 23.2839 26.4205 23.323C26.3201 23.3622 26.2307 23.4212 26.1587 23.4958C26.0157 23.6424 25.9291 23.8272 25.9118 24.0224C25.9047 24.1128 25.9209 24.2036 25.9591 24.2873C25.9974 24.3711 26.0567 24.4456 26.1323 24.5049L28.3085 26.4589L26.1323 28.413C26.0563 28.4802 25.9973 28.5615 25.9592 28.6513C25.9212 28.7412 25.905 28.8375 25.9118 28.9336C25.9187 29.1273 26.008 29.311 26.161 29.4461C26.2357 29.5175 26.3273 29.5726 26.4289 29.6073C26.5305 29.642 26.6394 29.6553 26.7475 29.6463C26.9628 29.6412 27.1701 29.5707 27.3361 29.4461L29.4572 27.5281L31.5872 29.4101C31.6635 29.4874 31.757 29.5491 31.8615 29.5912C31.966 29.6333 32.0792 29.6548 32.1935 29.6543C32.2994 29.6583 32.405 29.6426 32.504 29.6081C32.6029 29.5737 32.6931 29.5213 32.769 29.4541C32.8498 29.3857 32.9132 29.302 32.9548 29.209C32.9963 29.1159 33.0149 29.0158 33.0093 28.9155C33.0085 28.8167 32.9858 28.7189 32.9426 28.6281C32.8995 28.5373 32.8367 28.4553 32.758 28.387Z" fill="#393939"/>
<path d="M24.1186 23.4817C24.0659 23.4405 24.0082 23.4049 23.9466 23.3756C23.8266 23.3069 23.6872 23.2714 23.5453 23.2735C23.4035 23.2714 23.264 23.3069 23.1441 23.3756C23.0824 23.4049 23.0247 23.4405 22.9721 23.4817C22.8935 23.5403 22.8302 23.614 22.7868 23.6974C22.7433 23.7808 22.7207 23.872 22.7207 23.9643V28.9555C22.7208 29.0538 22.7447 29.1509 22.7909 29.2398C22.837 29.3288 22.9041 29.4074 22.9875 29.4701C23.1387 29.5913 23.3349 29.6557 23.5365 29.6503H23.5652C23.7667 29.6557 23.963 29.5913 24.1142 29.4701C24.1976 29.4074 24.2647 29.3288 24.3108 29.2398C24.3569 29.1509 24.3809 29.0538 24.381 28.9555V23.9643C24.3796 23.8712 24.3553 23.7795 24.3099 23.696C24.2645 23.6125 24.1992 23.5393 24.1186 23.4817Z" fill="#393939"/>
<path d="M24.1629 21.3806C24.0925 21.31 24.0063 21.2539 23.9101 21.2159C23.8139 21.1779 23.71 21.159 23.6051 21.1603C23.3905 21.1562 23.1825 21.228 23.0252 21.3605C22.9463 21.4227 22.8826 21.4992 22.8382 21.585C22.7938 21.6709 22.7696 21.7642 22.7672 21.8591C22.7581 21.9617 22.7731 22.0648 22.8111 22.1618C22.8491 22.2588 22.9093 22.3473 22.9877 22.4217C23.1556 22.5596 23.3743 22.6353 23.6007 22.6339C23.7048 22.6347 23.8079 22.6155 23.9033 22.5775C23.9987 22.5395 24.0842 22.4837 24.1541 22.4137C24.3053 22.2756 24.3902 22.0888 24.3902 21.8941C24.3902 21.6994 24.3053 21.5126 24.1541 21.3746L24.1629 21.3806Z" fill="#393939"/>
</g>
<g clip-path="url(#clip1)">
<path d="M16.9273 7.97363C14.5167 7.97363 12.3252 9.93481 12.3252 12.3535C12.3285 13.2433 12.6242 14.1099 13.1711 14.8325C14.3414 14.1733 15.6103 13.7074 16.9361 13.7074C18.262 13.7074 19.5287 14.1733 20.7011 14.8325C21.248 14.1099 21.5437 13.2433 21.547 12.3535C21.5383 9.93481 19.3446 7.97363 16.9273 7.97363Z" fill="#393939"/>
<path d="M16.9252 0C11.0081 0 6.21094 11.8898 6.21094 17.4405C6.21094 21.7476 9.10152 17.1223 13.1602 14.8326C12.5875 14.0798 12.2912 13.1694 12.317 12.2413C12.3427 11.3132 12.689 10.4188 13.3026 9.69565C13.107 10.1396 13.0064 10.6161 13.0068 11.0974C13.0068 12.0836 13.4196 13.0294 14.1544 13.7268C14.8893 14.4241 15.8859 14.8159 16.9252 14.8159C17.9644 14.8159 18.961 14.4241 19.6959 13.7268C20.4307 13.0294 20.8436 12.0836 20.8436 11.0974C20.8439 10.6161 20.7433 10.1396 20.5477 9.69565C21.1613 10.4188 21.5076 11.3132 21.5334 12.2413C21.5591 13.1694 21.2628 14.0798 20.6902 14.8326C24.751 17.1202 27.6394 21.7476 27.6394 17.4405C27.6394 11.8918 22.8422 0 16.9252 0Z" fill="#393939"/>
</g>
<defs>
<clipPath id="clip0">
<rect width="32.1427" height="8.53701" fill="white" transform="translate(0.857422 21.127)"/>
</clipPath>
<clipPath id="clip1">
<rect width="21.4285" height="19.2083" fill="white" transform="translate(6.21484)"/>
</clipPath>
</defs>
</svg>
