<svg width="186" height="170" viewBox="0 0 186 170" fill="none" xmlns="http://www.w3.org/2000/svg">
<path d="M84.5437 71.1185L106.927 83.5337C107.185 83.6771 107.399 83.8813 107.546 84.1256C107.694 84.3699 107.77 84.646 107.767 84.9263C107.765 85.2066 107.683 85.4814 107.531 85.7232C107.379 85.965 107.161 86.1655 106.9 86.3046L84.5173 98.2231C84.2555 98.3621 83.9592 98.4347 83.6578 98.4335C83.3565 98.4324 83.0608 98.3577 82.8002 98.2167C82.5396 98.0758 82.3232 97.8736 82.1727 97.6303C82.0221 97.3871 81.9427 97.1113 81.9424 96.8305V84.751C81.9424 83.8505 82.6724 83.1205 83.5729 83.1205C84.4734 83.1205 85.2034 83.8505 85.2034 84.751V93.7797C85.2034 93.9296 85.3622 94.0263 85.4954 93.9573L102.641 85.0757C102.783 85.002 102.785 84.7991 102.644 84.7225L85.4989 75.3985C85.3656 75.326 85.2034 75.4225 85.2034 75.5742V77.6564C85.2034 78.8978 83.8714 79.6838 82.7847 79.0837C82.265 78.7968 81.9424 78.2501 81.9424 77.6564V72.4966C81.9424 72.2133 82.0229 71.935 82.1758 71.6901C82.3287 71.4452 82.5485 71.2424 82.8128 71.1024C83.0772 70.9624 83.3766 70.8901 83.6806 70.8929C83.9846 70.8957 84.2824 70.9736 84.5437 71.1185Z" stroke="#FF9739" stroke-width="1.5"/>
<path d="M66.5787 58.5302C66.1207 58.0631 66.154 57.3043 66.6651 56.896C72.7788 52.0113 80.3539 48.9727 88.3841 48.2006C96.8282 47.3886 105.329 49.1259 112.634 53.1563C119.938 57.1866 125.66 63.297 128.956 70.5868C132.253 77.8767 132.949 85.9604 130.942 93.6469C128.936 101.333 124.333 108.216 117.812 113.28C111.29 118.345 103.196 121.323 94.7207 121.776C86.2457 122.23 77.8385 120.134 70.7381 115.799C63.999 111.684 58.7753 105.757 55.7498 98.8192C55.4846 98.2111 55.8066 97.5145 56.434 97.2989V97.2989C57.022 97.0968 57.663 97.3938 57.9109 97.964C60.755 104.505 65.6747 110.091 72.0247 113.969C78.7044 118.048 86.6133 120.019 94.5861 119.592C102.559 119.166 110.174 116.364 116.309 111.6C122.443 106.835 126.774 100.361 128.661 93.1298C130.549 85.8989 129.894 78.2941 126.793 71.4363C123.692 64.5784 118.309 58.8302 111.437 55.0387C104.566 51.2471 96.5688 49.6129 88.625 50.3767C81.041 51.1059 73.8884 53.9842 68.1253 58.6111C67.6634 58.982 66.9934 58.9532 66.5787 58.5302V58.5302Z" fill="white"/>
<path d="M54.9979 93.1458C54.3812 93.2812 53.7663 92.903 53.6316 92.2862C52.433 86.8002 52.5881 81.1268 54.092 75.6963C55.6053 70.2324 58.4413 65.1689 62.3767 60.892C62.7805 60.4532 63.4575 60.4215 63.9129 60.8063V60.8063C64.4159 61.2314 64.4517 61.9927 64.0088 62.4801C60.3846 66.4688 57.7694 71.1726 56.3652 76.243C54.9629 81.3062 54.8071 86.5939 55.9022 91.712C56.0403 92.3575 55.6427 93.0042 54.9979 93.1458V93.1458Z" fill="#FF9739"/>
<path d="M106.885 60.6047C107.181 60.1061 107.821 59.9157 108.318 60.193C112.97 62.7851 116.815 66.4747 119.459 70.8967C122.272 75.6014 123.614 80.9467 123.332 86.3261C123.05 91.7055 121.156 96.9036 117.865 101.331C114.573 105.758 110.016 109.236 104.71 111.372C99.404 113.507 93.5621 114.214 87.8469 113.412C82.1317 112.611 76.7721 110.332 72.3762 106.835C67.9804 103.339 64.7242 98.7638 62.9773 93.6299C61.3518 88.8528 61.0936 83.7696 62.218 78.8819C62.3573 78.2767 62.9844 77.9073 63.5899 78.0515V78.0515C64.1941 78.1953 64.548 78.7963 64.411 79.4006C63.3891 83.9072 63.6342 88.5904 65.1323 92.9932C66.7515 97.7517 69.7696 101.992 73.844 105.233C77.9184 108.474 82.8862 110.586 88.1835 111.329C93.4808 112.072 98.8956 111.417 103.813 109.438C108.731 107.458 112.955 104.234 116.006 100.131C119.057 96.0275 120.813 91.2094 121.074 86.2234C121.335 81.2373 120.092 76.2828 117.484 71.9221C115.056 67.8609 111.535 64.4662 107.276 62.0671C106.759 61.776 106.576 61.1238 106.885 60.6047V60.6047Z" fill="white"/>
<path d="M67.2207 70.2305C66.6787 69.9149 66.523 69.2113 66.901 68.6944C70.1721 64.222 74.7345 60.6917 80.072 58.5187C85.4628 56.3241 91.4066 55.6108 97.2051 56.4518C97.7823 56.5355 98.1507 57.0772 98.0345 57.645V57.645C97.9167 58.22 97.3473 58.6028 96.7624 58.5198C91.418 57.7618 85.9443 58.427 80.9771 60.4492C76.0325 62.4622 71.8055 65.732 68.774 69.8742C68.4137 70.3666 67.7371 70.5311 67.2207 70.2305V70.2305Z" fill="white"/>
<path d="M72.3453 132.089L73.9327 132.412L71.8843 141.145L76.5289 142.091L78.5774 133.358L80.1648 133.681L77.767 143.904L69.9475 142.311L72.3453 132.089Z" fill="white"/>
<path d="M61.1357 137.001L58.1152 135.462C56.8678 134.827 56.0546 134.003 55.6757 132.992C55.2916 131.99 55.3982 130.98 55.9954 129.962C56.5977 128.936 57.4552 128.303 58.5681 128.063C59.6809 127.824 60.861 128.022 62.1084 128.657L63.6854 129.461L65.0064 127.21L66.4498 127.946L61.1357 137.001ZM62.9187 130.768L61.2481 129.916C60.4818 129.526 59.748 129.376 59.0466 129.467C58.3312 129.562 57.7686 129.958 57.3586 130.657C56.9588 131.338 56.9091 131.985 57.2094 132.598C57.5098 133.21 58.0387 133.709 58.796 134.095L60.4666 134.946L62.9187 130.768Z" fill="white"/>
<path d="M49.6855 123.768L46.0584 120.555L47.1509 119.484L50.778 122.696L52.92 120.596L49.0235 117.145L50.1159 116.074L55.2253 120.599L47.728 127.95L42.6186 123.425L43.7111 122.354L47.6077 125.805L49.6855 123.768Z" fill="white"/>
<path d="M41.3137 112.514L40.5397 111.389C39.848 110.384 39.0944 110.126 38.279 110.613C37.8841 110.849 37.663 111.161 37.6156 111.55C37.5625 111.931 37.7103 112.383 38.0589 112.907L38.1099 112.981C38.3934 113.393 38.7827 113.765 39.2777 114.097C39.7641 114.434 40.271 114.66 40.7984 114.775L40.5569 116.14C39.8155 116.014 39.1162 115.746 38.4589 115.336C37.7959 114.919 37.2575 114.409 36.8436 113.808L36.784 113.721C36.4211 113.194 36.1837 112.691 36.0717 112.211C35.9541 111.724 35.9517 111.307 36.0645 110.96C36.1774 110.614 36.3313 110.318 36.5265 110.074C36.7216 109.829 36.9565 109.625 37.2312 109.461C37.729 109.163 38.2391 109.015 38.7612 109.017C39.2748 109.024 39.7435 109.185 40.1672 109.502C39.9443 108.949 39.9367 108.419 40.1444 107.911C40.3379 107.4 40.705 106.983 41.2458 106.66C42.0183 106.198 42.8221 106.09 43.657 106.335C44.4863 106.571 45.271 107.219 46.011 108.276L46.062 108.35C46.544 109.05 46.8303 109.792 46.9209 110.575C47.0116 111.358 46.9197 112.104 46.6455 112.815L45.2132 112.45C45.4096 111.926 45.4649 111.364 45.3792 110.764C45.2877 110.156 45.0691 109.601 44.7232 109.098L44.6722 109.024C44.2753 108.447 43.8476 108.064 43.389 107.873C42.9219 107.687 42.4523 107.735 41.9802 108.017C41.5682 108.263 41.3284 108.593 41.2609 109.005C41.1878 109.409 41.3326 109.875 41.6955 110.402L42.6141 111.736L41.3137 112.514Z" fill="white"/>
<path d="M35.8607 100.713L34.1945 96.1637L35.6525 95.6999L37.3187 100.249L40.1776 99.3402L38.3876 94.4527L39.8456 93.989L42.1928 100.398L32.1866 103.58L29.8395 97.1713L31.2975 96.7076L33.0875 101.595L35.8607 100.713Z" fill="white"/>
<path d="M39.9827 80.7758L40.1366 82.3884L35.6221 82.7626L36.0809 87.5707L40.5955 87.1966L40.7494 88.8093L30.2852 89.6765L30.1313 88.0638L34.5562 87.6971L34.0973 82.8889L29.6725 83.2556L29.5185 81.643L39.9827 80.7758Z" fill="white"/>
<path d="M33.1114 69.345L41.9315 70.9778L41.5937 72.5622L32.7736 70.9293L32.1356 73.9221L30.6311 73.6436L32.2481 66.059L33.7526 66.3375L33.1114 69.345Z" fill="white"/>
<path d="M44.5674 61.0574L46.2891 62.8622L45.4823 64.4545L37.8308 56.3589L38.2579 55.5159L49.8077 55.9177L49.001 57.51L46.4183 57.4046L44.5674 61.0574ZM40.7457 57.1341L43.4246 59.9328L44.767 57.2835L40.7457 57.1341Z" fill="white"/>
<path d="M61.9656 47.7762L60.8771 48.976L59.3571 47.7786L54.1264 53.5446L45.8783 47.047L46.9667 45.8472L54.013 51.3979L57.228 47.8539L50.1817 42.3032L51.2702 41.1033L58.3165 46.6541L59.2437 45.632L61.9656 47.7762Z" fill="white"/>
<path d="M72.2001 40.2693L70.8215 41.1202L66.5286 35.0804L66.0986 44.0352L65.2945 44.5315L59.2115 35.9731L60.59 35.1222L64.8829 41.162L65.3129 32.2072L66.1171 31.7109L72.2001 40.2693Z" fill="white"/>
<path d="M85.6888 36.5769L84.1333 37.0293L83.2568 34.4122L81.6724 34.8729C81.1603 35.0427 80.7951 35.2581 80.577 35.5193C80.3685 35.7776 80.1642 36.2689 79.9641 36.993L79.6106 38.3445L77.8534 38.8555L78.3133 37.1609C78.5909 36.102 78.9301 35.3842 79.3308 35.0076C78.4961 34.9693 77.777 34.7414 77.1735 34.3238C76.5796 33.9034 76.1525 33.3044 75.8921 32.5268C75.5269 31.4363 75.6252 30.44 76.1872 29.5378C76.7459 28.626 77.6926 27.9761 79.0273 27.588L82.3545 26.6204L85.6888 36.5769ZM81.2848 28.5236L79.3692 29.0807C78.5722 29.3124 77.9779 29.6934 77.5864 30.2235C77.1949 30.7535 77.1199 31.3789 77.3612 32.0996C77.6089 32.8392 78.0507 33.3247 78.6866 33.556C79.329 33.775 80.0535 33.7672 80.8601 33.5327L82.7757 32.9756L81.2848 28.5236Z" fill="white"/>
<path d="M116.212 41.1803L115.155 37.415C115.004 36.8746 114.851 36.5001 114.698 36.2913C114.554 36.0852 114.276 35.9243 113.861 35.8086L112.576 35.4496L111.184 39.7763L109.624 39.3406L112.838 29.3448L114.399 29.7805L113.053 33.9645L114.223 34.2913C114.628 34.4042 114.956 34.4128 115.207 34.3169C115.458 34.2211 115.811 33.9877 116.267 33.6169L119.21 31.1239L120.987 31.6202L117.555 34.5058C116.799 35.0936 116.23 35.4275 115.848 35.5074C116.045 35.6454 116.206 35.846 116.331 36.1092C116.469 36.3656 116.612 36.7688 116.761 37.3186L117.974 41.6725L116.212 41.1803Z" fill="white"/>
<path d="M128.754 39.0179C130.245 38.6974 131.623 38.9213 132.888 39.6897C134.153 40.458 134.929 41.5424 135.216 42.9427C135.517 44.34 135.243 45.645 134.395 46.8578C133.547 48.0705 132.373 48.8345 130.874 49.1498C129.389 49.4621 128.014 49.2341 126.749 48.4657C125.484 47.6974 124.705 46.6172 124.412 45.225C124.125 43.8247 124.406 42.5182 125.254 41.3054C126.103 40.0927 127.269 39.3302 128.754 39.0179ZM133.652 43.219C133.455 42.2471 132.908 41.4885 132.011 40.9434C131.113 40.3983 130.148 40.2379 129.114 40.4623C128.094 40.6837 127.269 41.2451 126.639 42.1465C126.003 43.056 125.782 43.9901 125.976 44.9487C126.178 45.9125 126.729 46.6669 127.626 47.212C128.523 47.7571 129.486 47.9216 130.514 47.7054C131.542 47.4892 132.374 46.9263 133.011 46.0167C133.641 45.1154 133.855 44.1828 133.652 43.219Z" fill="white"/>
<path d="M140.868 63.8086L139.793 62.5968L145.71 58.0377L139.853 58.1108L141.021 52.753L135.104 57.3121L134.029 56.1003L142.346 49.6919L142.973 50.3988L141.552 56.8017L148.568 56.7045L149.185 57.4002L140.868 63.8086Z" fill="white"/>
<path d="M145.912 77.1751L145.301 75.6748L153.757 72.6841L151.97 68.2941L143.513 71.2849L142.902 69.7845L152.801 66.2837L155.811 73.6743L145.912 77.1751Z" fill="white"/>
<path d="M147.597 85.3249L145.168 84.5374L145.021 82.7585L155.852 86.3243L155.93 87.2661L145.812 92.2958L145.664 90.5169L147.935 89.4059L147.597 85.3249ZM152.943 87L149.17 85.7831L149.415 88.7429L152.943 87Z" fill="white"/>
<path d="M143.213 104.653L143.538 103.066L147.998 103.858L148.967 99.1266L144.507 98.3338L144.832 96.7467L155.17 98.5842L154.845 100.171L150.473 99.3943L149.505 104.126L153.876 104.903L153.551 106.49L143.213 104.653Z" fill="white"/>
<path d="M135.197 116.798L135.979 115.379L142.663 118.578L138.658 110.518L139.115 109.691L148.586 114.224L147.804 115.643L141.12 112.444L145.124 120.503L144.668 121.331L135.197 116.798Z" fill="white"/>
<path d="M124.706 126.598L125.858 125.46L131.423 130.353L129.807 121.56L130.479 120.896L138.365 127.829L137.212 128.967L131.647 124.075L133.264 132.867L132.591 133.531L124.706 126.598Z" fill="white"/>
</svg>
