<svg width="28" height="20" viewBox="0 0 28 20" fill="none" xmlns="http://www.w3.org/2000/svg">
<path opacity="0.7" d="M17.5 7.5H24.2375L20.075 2.5H17.5V7.5ZM20.625 18.125C21.1125 18.125 21.55 17.9625 21.925 17.5875C22.3 17.2125 22.5 16.775 22.5 16.25C22.5 15.7625 22.3 15.325 21.925 14.95C21.55 14.575 21.1125 14.375 20.625 14.375C20.1 14.375 19.6625 14.575 19.2875 14.95C18.9125 15.325 18.75 15.7625 18.75 16.25C18.75 16.775 18.9125 17.2125 19.2875 17.5875C19.6625 17.9625 20.1 18.125 20.625 18.125ZM6.25 18.125C6.8 18.125 7.25 17.9625 7.6 17.5875C7.95 17.2125 8.125 16.775 8.125 16.25C8.125 15.7625 7.95 15.325 7.6 14.95C7.25 14.575 6.8 14.375 6.25 14.375C5.7 14.375 5.25 14.575 4.9 14.95C4.55 15.325 4.375 15.7625 4.375 16.25C4.375 16.775 4.55 17.2125 4.9 17.5875C5.25 17.9625 5.7 18.125 6.25 18.125ZM21.25 0L27.5 7.5V16.25H24.375C24.375 17.2875 23.9875 18.1625 23.2375 18.9125C22.5 19.65 21.625 20 20.625 20C19.5875 20 18.7125 19.65 17.975 18.9125C17.225 18.1625 16.875 17.2875 16.875 16.25H10C10 17.2875 9.625 18.1625 8.8875 18.9125C8.125 19.65 7.2625 20 6.25 20C5.2375 20 4.375 19.65 3.6125 18.9125C2.875 18.1625 2.5 17.2875 2.5 16.25H0V11.25H10.2375L2.5 5.1375V8.75H0V1.25H1.25L15 8.825V0H21.25Z" fill="white"/>
</svg>
