<svg width="97" height="97" viewBox="0 0 97 97" fill="none" xmlns="http://www.w3.org/2000/svg">
<path d="M51 6.46667V3.96667H46V6.46667H51ZM46 29.1V31.6H51V29.1H46ZM51 67.9V65.4H46V67.9H51ZM46 90.5333V93.0333H51V90.5333H46ZM29.1 50.9708H31.6V45.9708H29.1V50.9708ZM6.46667 45.9708H3.96667V50.9708H6.46667V45.9708ZM80.8333 50.9708H83.3333V45.9708H80.8333V50.9708ZM67.9 45.9708H65.4V50.9708H67.9V45.9708ZM46 6.46667V29.1H51V6.46667H46ZM46 67.9V90.5333H51V67.9H46ZM29.1 45.9708H6.46667V50.9708H29.1V45.9708ZM80.8333 45.9708H67.9V50.9708H80.8333V45.9708ZM14.3989 17.9344L33.7989 37.3344L37.3344 33.7989L17.9344 14.3989L14.3989 17.9344ZM79.0656 14.3989L59.6656 33.7989L63.2011 37.3344L82.6011 17.9344L79.0656 14.3989ZM17.9344 82.6011L37.3344 63.2011L33.7989 59.6656L14.3989 79.0656L17.9344 82.6011ZM59.6656 63.2011L79.0656 82.6011L82.6011 79.0656L63.2011 59.6656L59.6656 63.2011Z" fill="black"/>
</svg>
