<svg width="33" height="33" viewBox="0 0 33 33" fill="none" xmlns="http://www.w3.org/2000/svg">
<circle cx="16.5" cy="16.5" r="16.5" fill="#FF9739"/>
<g clip-path="url(#clip0)">
<path d="M21.8712 18.7663L19.3023 17.6653C19.1926 17.6186 19.0706 17.6087 18.9548 17.6373C18.839 17.6658 18.7356 17.7312 18.6601 17.8236L17.5225 19.2135C15.7371 18.3717 14.3002 16.9349 13.4584 15.1494L14.8483 14.0118C14.9409 13.9365 15.0064 13.8331 15.035 13.7172C15.0636 13.6013 15.0536 13.4793 15.0066 13.3696L13.9056 10.8007C13.8541 10.6824 13.7628 10.5859 13.6477 10.5277C13.5325 10.4695 13.4007 10.4533 13.2749 10.4819L10.8895 11.0324C10.7682 11.0604 10.66 11.1287 10.5825 11.2261C10.505 11.3235 10.4629 11.4444 10.4629 11.5688C10.4629 17.452 15.2314 22.2113 21.1054 22.2113C21.2299 22.2114 21.3508 22.1693 21.4483 22.0918C21.5457 22.0143 21.6141 21.906 21.6421 21.7847L22.1926 19.3993C22.221 19.2729 22.2044 19.1405 22.1458 19.025C22.0871 18.9094 21.99 18.818 21.8712 18.7663Z" fill="white"/>
</g>
<defs>
<clipPath id="clip0">
<rect width="11.7434" height="11.7434" fill="white" transform="translate(10.4629 10.4636)"/>
</clipPath>
</defs>
</svg>
