<svg width="16" height="22" viewBox="0 0 16 22" fill="none" xmlns="http://www.w3.org/2000/svg">
<path d="M13.6 9.26658L14.4 6.06659C14.5333 5.66658 15.0667 3.79992 14 2.19992C13.2 0.999919 11.6 0.333252 9.33333 0.333252H6.66667C4.4 0.333252 2.8 0.999919 2 2.19992C0.933333 3.79992 1.46667 5.53325 1.6 6.06659L2.4 9.26658C0.933334 10.7333 0 12.7333 0 14.9999C0 17.7999 1.46667 20.1999 3.6 21.6666H12.4C14.5333 20.1999 16 17.7999 16 14.9999C16 12.7333 15.0667 10.7333 13.6 9.26658ZM4.8 7.66658L4.13333 5.39992V5.26658C4.13333 5.26658 3.86667 4.33325 4.26667 3.79992C4.53333 3.26658 5.33333 2.99992 6.66667 2.99992H9.33333C10.5333 2.99992 11.4667 3.26659 11.8667 3.66658C12.2667 4.19992 12 5.13325 12 5.13325L11.3333 7.66658C10.2667 7.26658 9.2 6.99992 8 6.99992C6.8 6.99992 5.73333 7.26658 4.8 7.66658Z" fill="#393939"/>
</svg>
